<mxfile host="app.diagrams.net" modified="2020-11-03T06:28:36.468Z" agent="5.0 (Macintosh; Intel Mac OS X 10_15_7) AppleWebKit/537.36 (KHTML, like Gecko) Chrome/86.0.4240.111 Safari/537.36" etag="hoVOaLlT4ARvh-mF5jIS" version="13.8.1" type="github" pages="2">
  <diagram id="DAFPHoVdk3YulrqNeCpr" name="Page-1">
    <mxGraphModel dx="926" dy="603" grid="1" gridSize="10" guides="1" tooltips="1" connect="1" arrows="1" fold="1" page="1" pageScale="1" pageWidth="827" pageHeight="1169" math="0" shadow="0">
      <root>
        <mxCell id="0" />
        <mxCell id="1" parent="0" />
        <mxCell id="Xo3AoRbN2ey5bQLFYqum-1" value="" style="rounded=1;whiteSpace=wrap;html=1;" vertex="1" parent="1">
          <mxGeometry x="120" y="40" width="480" height="200" as="geometry" />
        </mxCell>
        <mxCell id="Xo3AoRbN2ey5bQLFYqum-2" value="&lt;font style=&quot;font-size: 14px&quot;&gt;Global&lt;/font&gt;" style="text;html=1;resizable=0;autosize=1;align=center;verticalAlign=middle;points=[];fillColor=none;strokeColor=none;rounded=0;" vertex="1" parent="1">
          <mxGeometry x="605" y="220" width="60" height="20" as="geometry" />
        </mxCell>
        <mxCell id="Xo3AoRbN2ey5bQLFYqum-3" value="" style="rounded=0;whiteSpace=wrap;html=1;" vertex="1" parent="1">
          <mxGeometry x="140" y="50" width="120" height="60" as="geometry" />
        </mxCell>
        <mxCell id="Xo3AoRbN2ey5bQLFYqum-4" value="" style="rounded=0;whiteSpace=wrap;html=1;" vertex="1" parent="1">
          <mxGeometry x="150" y="60" width="120" height="60" as="geometry" />
        </mxCell>
        <mxCell id="Xo3AoRbN2ey5bQLFYqum-5" value="Ha-Controllers" style="rounded=0;whiteSpace=wrap;html=1;" vertex="1" parent="1">
          <mxGeometry x="160" y="70" width="120" height="60" as="geometry" />
        </mxCell>
        <mxCell id="Xo3AoRbN2ey5bQLFYqum-6" value="Ha-Scheduller" style="rounded=0;whiteSpace=wrap;html=1;" vertex="1" parent="1">
          <mxGeometry x="330" y="60" width="120" height="60" as="geometry" />
        </mxCell>
        <mxCell id="Xo3AoRbN2ey5bQLFYqum-7" value="clutser1" style="rounded=1;whiteSpace=wrap;html=1;" vertex="1" parent="1">
          <mxGeometry x="140" y="350" width="120" height="60" as="geometry" />
        </mxCell>
        <mxCell id="Xo3AoRbN2ey5bQLFYqum-8" value="cluster2" style="rounded=1;whiteSpace=wrap;html=1;" vertex="1" parent="1">
          <mxGeometry x="300" y="350" width="120" height="60" as="geometry" />
        </mxCell>
        <mxCell id="Xo3AoRbN2ey5bQLFYqum-9" value="cluster3" style="rounded=1;whiteSpace=wrap;html=1;" vertex="1" parent="1">
          <mxGeometry x="460" y="350" width="120" height="60" as="geometry" />
        </mxCell>
        <mxCell id="Xo3AoRbN2ey5bQLFYqum-10" value="Federation" style="rounded=0;whiteSpace=wrap;html=1;" vertex="1" parent="1">
          <mxGeometry x="300" y="170" width="120" height="60" as="geometry" />
        </mxCell>
        <mxCell id="Xo3AoRbN2ey5bQLFYqum-11" value="" style="endArrow=classic;html=1;exitX=0.5;exitY=1;exitDx=0;exitDy=0;entryX=0.5;entryY=0;entryDx=0;entryDy=0;" edge="1" parent="1" source="Xo3AoRbN2ey5bQLFYqum-10" target="Xo3AoRbN2ey5bQLFYqum-7">
          <mxGeometry width="50" height="50" relative="1" as="geometry">
            <mxPoint x="70" y="320" as="sourcePoint" />
            <mxPoint x="120" y="270" as="targetPoint" />
          </mxGeometry>
        </mxCell>
        <mxCell id="Xo3AoRbN2ey5bQLFYqum-12" value="" style="endArrow=classic;html=1;exitX=0.5;exitY=1;exitDx=0;exitDy=0;" edge="1" parent="1" source="Xo3AoRbN2ey5bQLFYqum-10" target="Xo3AoRbN2ey5bQLFYqum-8">
          <mxGeometry width="50" height="50" relative="1" as="geometry">
            <mxPoint x="370" y="240" as="sourcePoint" />
            <mxPoint x="210" y="360" as="targetPoint" />
          </mxGeometry>
        </mxCell>
        <mxCell id="Xo3AoRbN2ey5bQLFYqum-14" value="" style="endArrow=classic;html=1;exitX=0.5;exitY=1;exitDx=0;exitDy=0;entryX=0.5;entryY=0;entryDx=0;entryDy=0;" edge="1" parent="1" source="Xo3AoRbN2ey5bQLFYqum-10" target="Xo3AoRbN2ey5bQLFYqum-9">
          <mxGeometry width="50" height="50" relative="1" as="geometry">
            <mxPoint x="370" y="240" as="sourcePoint" />
            <mxPoint x="370" y="360" as="targetPoint" />
          </mxGeometry>
        </mxCell>
        <mxCell id="Xo3AoRbN2ey5bQLFYqum-15" value="Sisythus" style="rounded=0;whiteSpace=wrap;html=1;" vertex="1" parent="1">
          <mxGeometry x="460" y="170" width="120" height="60" as="geometry" />
        </mxCell>
      </root>
    </mxGraphModel>
  </diagram>
  <diagram id="lI5RoNFp88MgGGNgni5x" name="Page-2">
    <mxGraphModel dx="926" dy="603" grid="1" gridSize="10" guides="1" tooltips="1" connect="1" arrows="1" fold="1" page="1" pageScale="1" pageWidth="827" pageHeight="1169" math="0" shadow="0">
      <root>
        <mxCell id="msdkebxMWvLPw_NlSIgo-0" />
        <mxCell id="msdkebxMWvLPw_NlSIgo-1" parent="msdkebxMWvLPw_NlSIgo-0" />
        <mxCell id="msdkebxMWvLPw_NlSIgo-2" value="" style="rounded=1;whiteSpace=wrap;html=1;" vertex="1" parent="msdkebxMWvLPw_NlSIgo-1">
          <mxGeometry x="80" y="80" width="400" height="250" as="geometry" />
        </mxCell>
        <mxCell id="msdkebxMWvLPw_NlSIgo-3" value="节点接入" style="rounded=1;whiteSpace=wrap;html=1;fillColor=#d5e8d4;strokeColor=#82b366;" vertex="1" parent="msdkebxMWvLPw_NlSIgo-1">
          <mxGeometry x="210" y="270" width="100" height="50" as="geometry" />
        </mxCell>
        <mxCell id="msdkebxMWvLPw_NlSIgo-4" value="集群管理" style="rounded=1;whiteSpace=wrap;html=1;fillColor=#d5e8d4;strokeColor=#82b366;" vertex="1" parent="msdkebxMWvLPw_NlSIgo-1">
          <mxGeometry x="100" y="270" width="100" height="50" as="geometry" />
        </mxCell>
        <mxCell id="msdkebxMWvLPw_NlSIgo-5" value="应用管理" style="rounded=1;whiteSpace=wrap;html=1;fillColor=#d5e8d4;strokeColor=#82b366;" vertex="1" parent="msdkebxMWvLPw_NlSIgo-1">
          <mxGeometry x="100" y="90" width="100" height="50" as="geometry" />
        </mxCell>
        <mxCell id="msdkebxMWvLPw_NlSIgo-6" value="多集群调度" style="rounded=1;whiteSpace=wrap;html=1;fillColor=#d5e8d4;strokeColor=#82b366;" vertex="1" parent="msdkebxMWvLPw_NlSIgo-1">
          <mxGeometry x="210" y="90" width="100" height="50" as="geometry" />
        </mxCell>
        <mxCell id="msdkebxMWvLPw_NlSIgo-7" value="计量计费" style="rounded=1;whiteSpace=wrap;html=1;fillColor=#fff2cc;strokeColor=#d6b656;" vertex="1" parent="msdkebxMWvLPw_NlSIgo-1">
          <mxGeometry x="330" y="90" width="100" height="50" as="geometry" />
        </mxCell>
        <mxCell id="msdkebxMWvLPw_NlSIgo-8" value="跨集群服务发现" style="rounded=1;whiteSpace=wrap;html=1;fillColor=#fff2cc;strokeColor=#d6b656;" vertex="1" parent="msdkebxMWvLPw_NlSIgo-1">
          <mxGeometry x="330" y="270" width="100" height="50" as="geometry" />
        </mxCell>
        <mxCell id="msdkebxMWvLPw_NlSIgo-9" value="服务质量监控" style="rounded=1;whiteSpace=wrap;html=1;fillColor=#f8cecc;strokeColor=#b85450;" vertex="1" parent="msdkebxMWvLPw_NlSIgo-1">
          <mxGeometry x="100" y="180" width="100" height="50" as="geometry" />
        </mxCell>
        <mxCell id="msdkebxMWvLPw_NlSIgo-10" value="边缘服务发现" style="rounded=1;whiteSpace=wrap;html=1;fillColor=#fff2cc;strokeColor=#d6b656;" vertex="1" parent="msdkebxMWvLPw_NlSIgo-1">
          <mxGeometry x="210" y="180" width="100" height="50" as="geometry" />
        </mxCell>
        <mxCell id="msdkebxMWvLPw_NlSIgo-11" value="副本扩缩容" style="rounded=1;whiteSpace=wrap;html=1;fillColor=#f8cecc;strokeColor=#b85450;" vertex="1" parent="msdkebxMWvLPw_NlSIgo-1">
          <mxGeometry x="330" y="180" width="100" height="50" as="geometry" />
        </mxCell>
        <mxCell id="msdkebxMWvLPw_NlSIgo-15" value="" style="rounded=1;whiteSpace=wrap;html=1;fillColor=#f8cecc;strokeColor=#b85450;" vertex="1" parent="msdkebxMWvLPw_NlSIgo-1">
          <mxGeometry x="510" y="210" width="30" height="30" as="geometry" />
        </mxCell>
        <mxCell id="msdkebxMWvLPw_NlSIgo-16" value="未实现" style="text;html=1;resizable=0;autosize=1;align=center;verticalAlign=middle;points=[];fillColor=none;strokeColor=none;rounded=0;" vertex="1" parent="msdkebxMWvLPw_NlSIgo-1">
          <mxGeometry x="550" y="215" width="50" height="20" as="geometry" />
        </mxCell>
        <mxCell id="msdkebxMWvLPw_NlSIgo-17" value="" style="rounded=1;whiteSpace=wrap;html=1;fillColor=#d5e8d4;strokeColor=#82b366;" vertex="1" parent="msdkebxMWvLPw_NlSIgo-1">
          <mxGeometry x="510" y="250" width="30" height="30" as="geometry" />
        </mxCell>
        <mxCell id="msdkebxMWvLPw_NlSIgo-18" value="已实现" style="text;html=1;resizable=0;autosize=1;align=center;verticalAlign=middle;points=[];fillColor=none;strokeColor=none;rounded=0;" vertex="1" parent="msdkebxMWvLPw_NlSIgo-1">
          <mxGeometry x="550" y="255" width="50" height="20" as="geometry" />
        </mxCell>
        <mxCell id="msdkebxMWvLPw_NlSIgo-19" value="" style="rounded=1;whiteSpace=wrap;html=1;fillColor=#fff2cc;strokeColor=#d6b656;" vertex="1" parent="msdkebxMWvLPw_NlSIgo-1">
          <mxGeometry x="510" y="290" width="30" height="30" as="geometry" />
        </mxCell>
        <mxCell id="msdkebxMWvLPw_NlSIgo-20" value="开发中" style="text;html=1;resizable=0;autosize=1;align=center;verticalAlign=middle;points=[];fillColor=none;strokeColor=none;rounded=0;" vertex="1" parent="msdkebxMWvLPw_NlSIgo-1">
          <mxGeometry x="550" y="295" width="50" height="20" as="geometry" />
        </mxCell>
      </root>
    </mxGraphModel>
  </diagram>
</mxfile>
